<svg xmlns="http://www.w3.org/2000/svg" viewBox="0 0 720 380" font-family="-apple-system, BlinkMacSystemFont, 'Segoe UI', Roboto, sans-serif">
  <rect width="720" height="380" rx="16" fill="#ffffff" stroke="#e5e7eb"/>

  <text x="32" y="48" font-size="20" font-weight="700" fill="#111827">2 dropdown phụ thuộc — Tỉnh → Phường/Xã</text>
  <text x="32" y="74" font-size="13" fill="#6b7280">Chọn tỉnh, danh sách phường/xã tự lọc theo tỉnh · 34 tỉnh · 3.317 xã/phường</text>

  <!-- Province field -->
  <text x="32" y="118" font-size="13" font-weight="600" fill="#374151">Tỉnh/Thành phố</text>
  <rect x="32" y="130" width="300" height="44" rx="8" fill="#ffffff" stroke="#c7c7cc"/>
  <text x="48" y="158" font-size="15" fill="#111827">An Giang</text>
  <path d="M304 149 l7 7 l7 -7" fill="none" stroke="#6b7280" stroke-width="2" stroke-linecap="round" stroke-linejoin="round"/>

  <!-- Ward field (focused) -->
  <text x="388" y="118" font-size="13" font-weight="600" fill="#374151">Phường/Xã</text>
  <rect x="388" y="130" width="300" height="44" rx="8" fill="#ffffff" stroke="#1a73e8" stroke-width="2"/>
  <text x="404" y="158" font-size="15" fill="#111827">Phường Rạch Giá</text>
  <path d="M660 149 l7 7 l7 -7" fill="none" stroke="#1a73e8" stroke-width="2" stroke-linecap="round" stroke-linejoin="round"/>

  <!-- Open option list under ward -->
  <rect x="388" y="182" width="300" height="170" rx="10" fill="#ffffff" stroke="#e5e7eb"/>
  <rect x="394" y="188" width="288" height="30" rx="6" fill="#e8f0fe"/>
  <text x="406" y="208" font-size="14" fill="#1a73e8" font-weight="600">Phường Rạch Giá</text>
  <text x="406" y="244" font-size="14" fill="#1f2937">Phường Long Xuyên</text>
  <text x="406" y="276" font-size="14" fill="#1f2937">Phường Châu Đốc</text>
  <text x="406" y="308" font-size="14" fill="#1f2937">Đặc khu Phú Quốc</text>
  <text x="406" y="340" font-size="14" fill="#1f2937">Xã Nhơn Mỹ</text>

  <!-- Selected value chip -->
  <rect x="32" y="200" width="300" height="44" rx="8" fill="#f9fafb" stroke="#e5e7eb"/>
  <text x="48" y="221" font-size="12" fill="#6b7280">onChange →</text>
  <text x="48" y="238" font-size="12.5" fill="#111827" font-family="ui-monospace, SFMono-Regular, Menlo, monospace">{ province: "18", ward: "00001" }</text>

  <text x="32" y="338" font-size="12" fill="#9ca3af">Nguồn dữ liệu: Nhất Tín · vn-address-data</text>
</svg>
